<?xml version="1.0" ?><svg id="Layer_1" style="enable-background:new 0 0 128 128;" version="1.1" viewBox="0 0 128 128" xml:space="preserve" xmlns="http://www.w3.org/2000/svg" xmlns:xlink="http://www.w3.org/1999/xlink"><style type="text/css">
	.st0{fill-rule:evenodd;clip-rule:evenodd;}
	.st1{fill-rule:evenodd;clip-rule:evenodd;fill:#7ACED7;}
</style><path class="st0" d="M27.8,54.5V36.1C27.8,16.2,44,0,63.9,0h1.6c19.9,0,36.1,16.2,36.1,36.1v18.3h2.4  c2.3,0,4.2,1.9,4.2,4.2v65.2c0,2.3-1.9,4.2-4.2,4.2H25.4c-2.3,0-4.2-1.9-4.2-4.2V58.7c0-2.3,1.9-4.2,4.2-4.2H27.8L27.8,54.5z   M25.4,58.7v65.2h78.7V58.7H25.4L25.4,58.7z M40.3,54.5h48.9V36.1c0-13-10.6-23.6-23.6-23.6h-1.6c-13,0-23.6,10.6-23.6,23.6V54.5  L40.3,54.5z M64.7,74.4c-6.3,0-11.4,5.1-11.4,11.4c0,5.7,4.1,10.4,9.5,11.3v8.9c0,1.1,0.9,2.1,2.1,2.1c1.1,0,2.1-0.9,2.1-2.1v-9  c5.2-1.1,9.1-5.7,9.1-11.2C76.1,79.5,71,74.4,64.7,74.4L64.7,74.4z M97.5,54.5V36.1c0-17.6-14.4-32-32-32h-1.6  c-17.6,0-32,14.4-32,32v18.3h4.2V36.1c0-15.3,12.5-27.8,27.8-27.8h1.6c15.3,0,27.8,12.5,27.8,27.8v18.3H97.5L97.5,54.5z M66.2,92.9  c3.4-0.7,5.8-3.7,5.8-7.1c0-4-3.2-7.2-7.2-7.2c-4,0-7.2,3.2-7.2,7.2c0,3.5,2.6,6.6,6,7.1C65.6,93.3,64.1,93.3,66.2,92.9z" id="XMLID_13_"/><path class="st1" d="M25.4,58.7h78.7v65.2H25.4V58.7L25.4,58.7z M64.7,74.4c-6.3,0-11.4,5.1-11.4,11.4  c0,5.7,4.1,10.4,9.5,11.3v8.9c0,1.1,0.9,2.1,2.1,2.1c1.1,0,2.1-0.9,2.1-2.1v-9c5.2-1.1,9.1-5.7,9.1-11.2  C76.1,79.5,71,74.4,64.7,74.4z" id="XMLID_10_"/></svg>