<?xml version="1.0" ?><svg id="Layer_1" style="enable-background:new 0 0 128 128;" version="1.1" viewBox="0 0 128 128" xml:space="preserve" xmlns="http://www.w3.org/2000/svg" xmlns:xlink="http://www.w3.org/1999/xlink"><style type="text/css">
	.st0{fill-rule:evenodd;clip-rule:evenodd;}
	.st1{fill-rule:evenodd;clip-rule:evenodd;fill:#7ACED7;}
</style><path class="st0" d="M28,54.5V36.1C28,16.2,44.3,0,64.2,0h1.6c19.9,0,36.1,16.2,36.1,36.1H89.4  c0-13-10.6-23.6-23.6-23.6h-1.6c-13,0-23.6,10.6-23.6,23.6v18.3H83h6.4h12.5h2.4c2.3,0,4.2,1.9,4.2,4.2v65.2c0,2.3-1.9,4.2-4.2,4.2  H25.6c-2.3,0-4.2-1.9-4.2-4.2V58.7c0-2.3,1.9-4.2,4.2-4.2H28L28,54.5z M32.2,54.5h4.2V36.1c0-15.3,12.5-27.8,27.8-27.8h1.6  c13.9,0,25.4,10.3,27.5,23.6h4.2C95.4,16.3,82,4.2,65.8,4.2h-1.6c-17.6,0-32,14.4-32,32V54.5L32.2,54.5z M65.1,93.4  c0.4-0.2,0.8-0.4,1.3-0.5c3.4-0.7,5.8-3.7,5.8-7.1c0-4-3.2-7.2-7.2-7.2c-4,0-7.2,3.2-7.2,7.2c0,3.5,2.6,6.6,6,7.1  C64.3,93,64.7,93.2,65.1,93.4z" id="XMLID_10_"/><path class="st1" d="M25.6,58.7h78.7v65.2H25.6V58.7L25.6,58.7z M65,74.4c-6.3,0-11.4,5.1-11.4,11.4  c0,5.7,4.1,10.4,9.5,11.3v8.9c0,1.1,0.9,2.1,2.1,2.1s2.1-0.9,2.1-2.1v-9c5.2-1.1,9.1-5.7,9.1-11.2C76.4,79.5,71.3,74.4,65,74.4z" id="XMLID_7_"/></svg>